<svg width="112" height="23" viewBox="0 0 112 23" fill="none" xmlns="http://www.w3.org/2000/svg">
<g clip-path="url(#clip0)">
<path d="M53.8858 5.07452C51.9804 3.96659 49.4337 3.32117 46.9597 3.32117C44.9358 3.32117 43.2946 3.73664 42.0333 4.56759C40.7721 5.39854 40.1523 6.62144 40.1523 8.25982C40.2223 11.0976 41.9848 12.0435 45.8656 12.9685L47.6281 13.4075C49.7948 13.9144 50.2476 14.2385 50.2476 15.0459C50.2476 16.2453 49.2235 16.7548 47.5338 16.7548C45.6069 16.7548 43.1545 16.1094 41.1548 14.978L39.4408 17.7478C41.6318 19.1562 44.3914 19.9401 47.2238 19.9401C51.5789 19.9401 54.2685 18.0927 54.2685 14.8395C54.1499 11.8632 52.3416 11.0087 48.5551 9.97136L46.8897 9.53237C44.6043 8.93137 44.2486 8.65439 44.2486 7.98545C44.2486 6.96897 45.1999 6.46204 46.6525 6.46204C48.1994 6.46204 50.4362 7.03953 52.2688 7.96193L53.8885 5.07713L53.8858 5.07452Z" fill="#FFFFFF"/>
<path d="M37.2687 11.628C37.363 7.12831 33.1993 3.4805 28.3915 3.55106H21.4412V19.7049H28.3915C33.1993 19.7754 37.363 16.1276 37.2687 11.628ZM28.2486 6.82781C31.081 6.82781 33.3906 8.9287 33.3906 11.628C33.3906 14.2828 31.081 16.4046 28.2486 16.4046H25.2249V6.82781H28.2486Z" fill="#FFFFFF"/>
<path d="M14.2564 19.705H18.66L11.804 3.55115H6.82911L0.0458984 19.705H4.44946L5.7107 16.5197H12.9925L14.2537 19.705H14.2564ZM6.90187 13.5199L9.33003 7.35835L11.7824 13.5199H6.90457H6.90187Z" fill="#FFFFFF"/>
<path d="M63.213 0H61.5179V23H63.213V0Z" fill="#FFFFFF"/>
<path d="M72.6804 9.05939H74.0441L72.0336 3.83069H70.3681L68.3658 9.05939H69.7213L70.1148 7.95407H72.295L72.6804 9.05939ZM70.4463 7.01337L71.2009 4.855L71.9636 7.01337H70.4463Z" fill="#FFFFFF"/>
<path d="M77.0624 5.17388C76.5234 5.17388 76.13 5.43518 75.8066 5.84543V5.24704H74.5669V9.05686H75.8066V6.69728C76.0464 6.42814 76.2755 6.25568 76.5773 6.25568C76.8846 6.25568 77.1163 6.44382 77.1163 6.83055V9.05686H78.3641V6.50914C78.3641 5.66513 77.7928 5.17126 77.0624 5.17126V5.17388Z" fill="#FFFFFF"/>
<path d="M80.9 5.17383C80.6764 5.17383 80.0835 5.17383 79.3504 5.38287V6.44377C79.9757 6.08578 80.3988 6.06226 80.5766 6.06226C81.1614 6.06226 81.3932 6.35231 81.3932 6.74949V7.05522C81.1156 6.75733 80.7545 6.64497 80.3287 6.64497C79.5041 6.64497 78.9193 7.17542 78.9193 7.88617C78.9193 8.58908 79.5041 9.1352 80.3071 9.1352C80.7626 9.1352 81.1318 8.9549 81.3932 8.64134V9.05942H82.641V6.69985C82.641 5.72779 81.9565 5.17644 80.9 5.17644V5.17383ZM80.7222 8.3931C80.3745 8.3931 80.1293 8.17621 80.1293 7.89139C80.1293 7.59873 80.3826 7.36878 80.7222 7.36878C80.9539 7.36878 81.1614 7.44979 81.3932 7.71893V8.04818C81.1614 8.30948 80.9459 8.3931 80.7222 8.3931Z" fill="#FFFFFF"/>
<path d="M83.3902 9.05939H84.638V3.83069H83.3902V9.05939Z" fill="#FFFFFF"/>
<path d="M88.0201 5.24963L87.2952 7.64057L86.4543 5.24963H85.0907L86.7104 8.79031L85.8318 10.3059H87.341L89.3999 5.24963H88.0201Z" fill="#FFFFFF"/>
<path d="M92.4965 6.18248V5.24963H91.4185V4.23315H90.1707V5.24963H89.6317V6.18248H90.1707V7.74508C90.1707 8.60477 90.6935 9.13522 91.6664 9.13522C91.9602 9.13522 92.1353 9.11954 92.3995 9.0516V8.01423C92.1219 8.09 91.9683 8.09784 91.8766 8.09784C91.5451 8.09784 91.4212 7.92538 91.4212 7.53865V6.1851H92.4992L92.4965 6.18248Z" fill="#FFFFFF"/>
<path d="M93.7361 4.74011C94.1511 4.74011 94.4691 4.44223 94.4691 4.04504C94.4691 3.64786 94.1538 3.34998 93.7361 3.34998C93.3265 3.34998 93.0112 3.64786 93.0112 4.04504C93.0112 4.44223 93.3265 4.74011 93.7361 4.74011ZM93.1109 9.05947H94.3586V5.24966H93.1109V9.05947Z" fill="#FFFFFF"/>
<path d="M97.2503 9.13256C97.5522 9.13256 97.9349 9.08814 98.3149 8.96794V7.90704C97.9295 8.04815 97.722 8.13177 97.3366 8.13177C96.7437 8.13177 96.2963 7.698 96.2963 7.14665C96.2963 6.59268 96.7437 6.18244 97.3285 6.18244C97.722 6.18244 97.9295 6.25037 98.3149 6.39932V5.30968C97.9376 5.22084 97.5522 5.18164 97.245 5.18164C96.0268 5.18164 95.0728 5.95771 95.0728 7.14665C95.0728 8.36433 96.0349 9.13517 97.253 9.13517L97.2503 9.13256Z" fill="#FFFFFF"/>
<path d="M100.802 5.17383C100.579 5.17383 99.9858 5.17383 99.2527 5.38287V6.44377C99.878 6.08578 100.301 6.06226 100.479 6.06226C101.064 6.06226 101.296 6.35231 101.296 6.74949V7.05522C101.018 6.75733 100.657 6.64497 100.231 6.64497C99.4063 6.64497 98.8215 7.17542 98.8215 7.88617C98.8215 8.58908 99.4063 9.1352 100.209 9.1352C100.665 9.1352 101.034 8.9549 101.296 8.64134V9.05942H102.543V6.69985C102.543 5.72779 101.856 5.17644 100.802 5.17644V5.17383ZM100.624 8.3931C100.277 8.3931 100.032 8.17621 100.032 7.89139C100.032 7.59873 100.285 7.36878 100.624 7.36878C100.856 7.36878 101.064 7.44979 101.296 7.71893V8.04818C101.064 8.30948 100.848 8.3931 100.624 8.3931Z" fill="#FFFFFF"/>
<path d="M103.29 9.05939H104.538V3.83069H103.29V9.05939Z" fill="#FFFFFF"/>
<path d="M70.9449 14.4762H68.7108V19.7049H70.9449C72.578 19.7049 73.8123 18.5918 73.8123 17.0893C73.8123 15.5946 72.5807 14.4736 70.9449 14.4736V14.4762ZM70.9691 18.631H69.9909V15.5528H70.9691C71.8854 15.5528 72.5268 16.2165 72.5268 17.0919C72.5268 17.9647 71.8935 18.631 70.9691 18.631Z" fill="#FFFFFF"/>
<path d="M76.2458 15.8193C76.0221 15.8193 75.4292 15.8193 74.6962 16.0284V17.0893C75.3214 16.7313 75.7446 16.7078 75.9224 16.7078C76.5072 16.7078 76.739 17.0004 76.739 17.395V17.7007C76.4614 17.4028 76.1003 17.2905 75.6745 17.2905C74.8498 17.2905 74.265 17.8209 74.265 18.5317C74.265 19.2346 74.8498 19.7807 75.6529 19.7807C76.1084 19.7807 76.4776 19.6004 76.739 19.2868V19.7049H77.9868V17.3427C77.9868 16.3707 77.3022 15.8193 76.2458 15.8193ZM76.068 19.0386C75.7203 19.0386 75.4751 18.8217 75.4751 18.5369C75.4751 18.2442 75.7284 18.0143 76.068 18.0143C76.2997 18.0143 76.5072 18.0953 76.739 18.3644V18.6937C76.5072 18.955 76.2916 19.0386 76.068 19.0386Z" fill="#FFFFFF"/>
<path d="M81.3312 16.828V15.8951H80.2532V14.8787H79.0055V15.8951H78.4665V16.828H79.0055V18.3906C79.0055 19.2503 79.5283 19.7807 80.5012 19.7807C80.7949 19.7807 80.9701 19.7651 81.2342 19.6971V18.6597C80.9566 18.7355 80.803 18.7434 80.7087 18.7434C80.3772 18.7434 80.2532 18.5709 80.2532 18.1816V16.8306H81.3312V16.828Z" fill="#FFFFFF"/>
<path d="M83.6273 15.8193C83.4036 15.8193 82.8108 15.8193 82.0777 16.0284V17.0893C82.703 16.7313 83.1261 16.7078 83.3039 16.7078C83.8887 16.7078 84.1205 17.0004 84.1205 17.395V17.7007C83.8429 17.4028 83.4818 17.2905 83.056 17.2905C82.2313 17.2905 81.6465 17.8209 81.6465 18.5317C81.6465 19.2346 82.2313 19.7807 83.0344 19.7807C83.4899 19.7807 83.8591 19.6004 84.1205 19.2868V19.7049H85.3683V17.3427C85.3683 16.3707 84.6811 15.8193 83.6273 15.8193ZM83.4495 19.0386C83.1018 19.0386 82.8566 18.8217 82.8566 18.5369C82.8566 18.2442 83.1099 18.0143 83.4495 18.0143C83.6812 18.0143 83.8887 18.0953 84.1205 18.3644V18.6937C83.8887 18.955 83.6731 19.0386 83.4495 19.0386Z" fill="#FFFFFF"/>
<path d="M89.761 19.7782C91.0627 19.7782 91.7715 19.023 91.7715 18.098C91.7715 16.2375 89.0981 16.8202 89.0981 15.8873C89.0981 15.5947 89.3514 15.3778 89.823 15.3778C90.3 15.3778 90.9253 15.5947 91.5343 15.9239V14.6461C90.9953 14.4894 90.2866 14.4005 89.8015 14.4005C88.5214 14.4005 87.6832 14.9989 87.6832 15.9553C87.6832 17.74 90.3566 17.2331 90.3566 18.2495C90.3566 18.5631 90.0871 18.78 89.664 18.78C89.0711 18.78 88.2923 18.4298 87.6832 18.0091V19.3548C88.4297 19.6762 89.2706 19.7808 89.7637 19.7808L89.761 19.7782Z" fill="#FFFFFF"/>
<path d="M94.9219 15.8193C94.3829 15.8193 93.9895 16.0807 93.6661 16.4909V14.4736H92.4264V19.7023H93.6661V17.3401C93.9059 17.071 94.135 16.8985 94.4368 16.8985C94.7441 16.8985 94.9758 17.0867 94.9758 17.4734V19.6997H96.2236V17.152C96.2236 16.308 95.6523 15.8141 94.9219 15.8141V15.8193Z" fill="#FFFFFF"/>
<path d="M100.711 17.7086C100.711 16.4987 99.9103 15.8193 98.8296 15.8193C97.7193 15.8193 96.8273 16.5431 96.8273 17.7242C96.8273 19.0177 97.6519 19.7703 99.0614 19.7703C99.3309 19.7703 99.8321 19.7467 100.479 19.5612V18.6048C99.816 18.8374 99.4845 18.8975 99.1854 18.8975C98.4928 18.8975 98.1289 18.6806 98.0211 18.1136H100.711V17.7112V17.7086ZM98.8377 16.6242C99.2932 16.6242 99.5465 16.9011 99.6246 17.3872H98.0131C98.1047 16.8933 98.3903 16.6242 98.8377 16.6242Z" fill="#FFFFFF"/>
<path d="M105.039 17.7086C105.039 16.4987 104.238 15.8193 103.158 15.8193C102.047 15.8193 101.155 16.5431 101.155 17.7242C101.155 19.0177 101.98 19.7703 103.389 19.7703C103.659 19.7703 104.16 19.7467 104.807 19.5612V18.6048C104.144 18.8374 103.813 18.8975 103.513 18.8975C102.821 18.8975 102.457 18.6806 102.349 18.1136H105.039V17.7112V17.7086ZM103.166 16.6242C103.621 16.6242 103.875 16.9011 103.953 17.3872H102.341C102.433 16.8933 102.718 16.6242 103.166 16.6242Z" fill="#FFFFFF"/>
<path d="M108.267 16.828V15.8951H107.189V14.8787H105.942V15.8951H105.403V16.828H105.942V18.3906C105.942 19.2503 106.464 19.7807 107.437 19.7807C107.731 19.7807 107.906 19.7651 108.17 19.6971V18.6597C107.893 18.7355 107.739 18.7434 107.647 18.7434C107.316 18.7434 107.192 18.5709 107.192 18.1816V16.8306H108.27L108.267 16.828Z" fill="#FFFFFF"/>
<path d="M110.402 19.7781C111.442 19.7781 111.951 19.2163 111.951 18.5082C111.951 17.1102 109.917 17.476 109.917 16.8933C109.917 16.7052 110.078 16.5954 110.386 16.5954C110.763 16.5954 111.318 16.7679 111.741 16.9691L111.757 16.0049C111.364 15.8847 110.771 15.8246 110.386 15.8246C109.37 15.8246 108.707 16.2584 108.707 17.0057C108.707 18.3279 110.741 18.0143 110.741 18.6414C110.741 18.8348 110.572 18.9472 110.256 18.9472C109.763 18.9472 109.192 18.6624 108.715 18.4089V19.4776C109.316 19.7023 110.024 19.7755 110.402 19.7755V19.7781Z" fill="#FFFFFF"/>
</g>
<defs>
<clipPath id="clip0">
<rect width="112" height="23" fill="white"/>
</clipPath>
</defs>
</svg>
