<svg width="32" height="32" viewBox="0 0 32 32" fill="none" xmlns="http://www.w3.org/2000/svg">
<path d="M11.2 21.6C12.9673 21.6 14.4 20.1673 14.4 18.4C14.4 16.6326 12.9673 15.2 11.2 15.2C9.43269 15.2 8 16.6326 8 18.4C8 20.1673 9.43269 21.6 11.2 21.6Z" fill="#FFFFFF"/>
<path d="M18.8 24C19.9046 24 20.8 23.1046 20.8 22C20.8 20.8954 19.9046 20 18.8 20C17.6954 20 16.8 20.8954 16.8 22C16.8 23.1046 17.6954 24 18.8 24Z" fill="#FFFFFF"/>
<path d="M19.2 17.6C21.851 17.6 24 15.451 24 12.8C24 10.149 21.851 8 19.2 8C16.549 8 14.4 10.149 14.4 12.8C14.4 15.451 16.549 17.6 19.2 17.6Z" fill="#FFFFFF"/>
</svg>
