<svg width="32" height="32" viewBox="0 0 32 32" fill="none" xmlns="http://www.w3.org/2000/svg">
<path d="M16 8C11.584 8 8 11.584 8 16C8 20.416 11.584 24 16 24C20.416 24 24 20.416 24 16C24 11.584 20.416 8 16 8ZM16 10.4C17.328 10.4 18.4 11.472 18.4 12.8C18.4 14.128 17.328 15.2 16 15.2C14.672 15.2 13.6 14.128 13.6 12.8C13.6 11.472 14.672 10.4 16 10.4ZM16 21.76C14 21.76 12.232 20.736 11.2 19.184C11.224 17.592 14.4 16.72 16 16.72C17.592 16.72 20.776 17.592 20.8 19.184C19.768 20.736 18 21.76 16 21.76Z" fill="#FFFFFF"/>
</svg>
